<?xml version="1.0" encoding="utf-8"?>
<!-- Generator: Adobe Illustrator 22.1.0, SVG Export Plug-In . SVG Version: 6.00 Build 0)  -->
<svg version="1.1" id="Layer_1" xmlns="http://www.w3.org/2000/svg" xmlns:xlink="http://www.w3.org/1999/xlink" x="0px" y="0px"
	 viewBox="0 0 294 73" style="enable-background:new 0 0 294 73;" xml:space="preserve">
<style type="text/css">
	.st0{fill:url(#SVGID_1_);}
	.st1{fill:url(#SVGID_2_);}
	.st2{fill:url(#SVGID_3_);}
	.st3{fill:url(#SVGID_4_);}
	.st4{fill:url(#SVGID_5_);}
	.st5{fill:url(#SVGID_6_);}
	.st6{fill:url(#SVGID_7_);}
	.st7{fill:url(#SVGID_8_);}
	.st8{fill:url(#SVGID_9_);}
</style>
<linearGradient id="SVGID_1_" gradientUnits="userSpaceOnUse" x1="-557.6473" y1="-81.4033" x2="-557.5212" y2="-81.695" gradientTransform="matrix(91 0 0 109.0353 50760 8941.6104)">
	<stop  offset="0" style="stop-color:#A6D951"/>
	<stop  offset="1" style="stop-color:#86C424"/>
</linearGradient>
<path class="st0" d="M32.1,26l7.3,27.4c0.7,2.9-1,5.9-4,6.6l-23.7,6.4c-2.6,0.7-4.4,4-3.7,6.6L0.6,45.5c-0.7-2.9,1-5.9,4-6.6
	l23.7-6.3C31.2,31.9,32.8,28.9,32.1,26z"/>
<linearGradient id="SVGID_2_" gradientUnits="userSpaceOnUse" x1="-557.8804" y1="-81.4473" x2="-558.09" y2="-81.1101" gradientTransform="matrix(91 0 0 108.9735 50829 8875.7891)">
	<stop  offset="0" style="stop-color:#FFC551"/>
	<stop  offset="1" style="stop-color:#F7941E"/>
</linearGradient>
<path class="st1" d="M61.7,0.1l7.5,27.4c0.7,2.9-1,5.9-4,6.6l-23.6,6.3c-2.9,0.7-4.5,3.7-4,6.6l-7.3-27.3c-0.7-2.9,1-5.9,4-6.6
	L58,6.8C60.8,6.2,62.7,3,61.7,0.1z"/>
<linearGradient id="SVGID_3_" gradientUnits="userSpaceOnUse" x1="115.38" y1="-766.254" x2="274.8601" y2="-686.5125" gradientTransform="matrix(1 0 0 -1 0 -686.7)">
	<stop  offset="0" style="stop-color:#FF8B00"/>
	<stop  offset="1" style="stop-color:#90D026"/>
</linearGradient>
<path class="st2" d="M195.7,26.6c-2.6,0-5.3,0.7-7.5,2.2c-0.4-1.2-1.9-2.2-3.4-2.2c-1.9,0-3.7,1.8-3.7,3.7v29.2
	c0,1.9,1.8,3.7,3.7,3.7c1.9,0,3.7-1.8,3.7-3.7V41.1c0-4,3.2-7.3,7.3-7.3c1.9,0,3.7-1.8,3.7-3.7S197.6,26.6,195.7,26.6L195.7,26.6z"
	/>
<linearGradient id="SVGID_4_" gradientUnits="userSpaceOnUse" x1="111.0409" y1="-757.5743" x2="270.5195" y2="-677.8343" gradientTransform="matrix(1 0 0 -1 0 -686.7)">
	<stop  offset="0" style="stop-color:#FF8B00"/>
	<stop  offset="1" style="stop-color:#90D026"/>
</linearGradient>
<path class="st3" d="M170.2,26.6h-11c-8.1,0-14.5,6.6-14.5,14.5v7.3c0,8.1,6.6,14.5,14.5,14.5c2.6,0,5.3-0.7,7.5-2.2
	c0.4,1.2,1.9,2.2,3.4,2.2c1.9,0,3.7-1.8,3.7-3.7v-29C173.8,28.2,172.1,26.6,170.2,26.6z M166.5,48.1c0,4-3.2,7.3-7.3,7.3
	c-4.1,0-7.3-3.2-7.3-7.3v-7.3c0-4,3.2-7.3,7.3-7.3h7.3V48.1z"/>
<linearGradient id="SVGID_5_" gradientUnits="userSpaceOnUse" x1="100.8683" y1="-737.2291" x2="260.3484" y2="-657.489" gradientTransform="matrix(1 0 0 -1 0 -686.7)">
	<stop  offset="0" style="stop-color:#FF8B00"/>
	<stop  offset="1" style="stop-color:#90D026"/>
</linearGradient>
<path class="st4" d="M123,26.6c-4.4,0-8.2,1.9-11,4.8c-2.6-2.9-6.6-4.8-11-4.8c-2.6,0-5.3,0.7-7.5,2.2c-0.4-1.2-1.9-2.2-3.4-2.2
	c-1.9,0-3.7,1.8-3.7,3.7v29.2c0,1.9,1.8,3.7,3.7,3.7c1.9,0,3.7-1.8,3.7-3.7V41.1c0-4,3.2-7.3,7.3-7.3c4,0,7.3,3.2,7.3,7.3v18.5
	c0,1.9,1.8,3.7,3.7,3.7c1.9,0,3.7-1.8,3.7-3.7V41.1c0-4,3.2-7.3,7.3-7.3s7.3,3.2,7.3,7.3v18.5c0,1.9,1.8,3.7,3.7,3.7
	s3.7-1.8,3.7-3.7V40.9C137.3,32.9,130.7,26.6,123,26.6z"/>
<linearGradient id="SVGID_6_" gradientUnits="userSpaceOnUse" x1="132.5019" y1="-800.4949" x2="291.9805" y2="-720.7548" gradientTransform="matrix(1 0 0 -1 0 -686.7)">
	<stop  offset="0" style="stop-color:#FF8B00"/>
	<stop  offset="1" style="stop-color:#90D026"/>
</linearGradient>
<path class="st5" d="M268.2,26.6c-8.1,0-14.5,6.6-14.5,14.5v7.3c0,8.1,6.6,14.5,14.5,14.5h7.3c1.9,0,3.7-1.8,3.7-3.7
	c0-1.9-1.8-3.7-3.7-3.7h-7.3c-4,0-7.3-3.2-7.3-7.3h18.2c1.9,0,3.7-1.8,3.7-3.7v-3.7C282.6,33,276.3,26.6,268.2,26.6z M261,41.1
	c0-4,3.2-7.3,7.3-7.3c4.1,0,7.3,3.2,7.3,7.3H261z"/>
<linearGradient id="SVGID_7_" gradientUnits="userSpaceOnUse" x1="125.9631" y1="-787.4202" x2="285.4432" y2="-707.6787" gradientTransform="matrix(1 0 0 -1 0 -686.7)">
	<stop  offset="0" style="stop-color:#FF8B00"/>
	<stop  offset="1" style="stop-color:#90D026"/>
</linearGradient>
<path class="st6" d="M235.5,26.6c-8.1,0-14.5,6.6-14.5,14.5v7.3c0,8.1,6.6,14.5,14.5,14.5h7.3c1.9,0,3.7-1.8,3.7-3.7
	c0-1.9-1.8-3.7-3.7-3.7h-7.3c-4,0-7.3-3.2-7.3-7.3h18.2c1.9,0,3.7-1.8,3.7-3.7v-3.7C250.1,33,243.5,26.6,235.5,26.6z M228.2,41.1
	c0-4,3.2-7.3,7.3-7.3c4.1,0,7.3,3.2,7.3,7.3H228.2z"/>
<linearGradient id="SVGID_8_" gradientUnits="userSpaceOnUse" x1="133.4113" y1="-802.3137" x2="292.8899" y2="-722.5737" gradientTransform="matrix(1 0 0 -1 0 -686.7)">
	<stop  offset="0" style="stop-color:#FF8B00"/>
	<stop  offset="1" style="stop-color:#90D026"/>
</linearGradient>
<path class="st7" d="M289.9,11.9c-1.9,0-3.7,1.8-3.7,3.7v43.5c0,1.9,1.8,3.7,3.7,3.7c1.9,0,3.7-1.8,3.7-3.7V15.6
	C293.6,13.7,291.8,11.9,289.9,11.9z"/>
<linearGradient id="SVGID_9_" gradientUnits="userSpaceOnUse" x1="116.7582" y1="-769.0089" x2="276.2368" y2="-689.2674" gradientTransform="matrix(1 0 0 -1 0 -686.7)">
	<stop  offset="0" style="stop-color:#FF8B00"/>
	<stop  offset="1" style="stop-color:#90D026"/>
</linearGradient>
<path class="st8" d="M215.8,26.6h-5.9v-3.7c0-4,3.2-7.3,7.3-7.3h3.7c1.9,0,3.7-1.8,3.7-3.7s-1.8-3.7-3.7-3.7h-3.7
	c-8.1,0-14.5,6.6-14.5,14.5V59c0,1.9,1.8,3.7,3.7,3.7s3.7-1.8,3.7-3.7V33.8h5.9c1.9,0,3.7-1.8,3.7-3.7S218,26.6,215.8,26.6z"/>
</svg>
